<?xml version="1.0" encoding="iso-8859-1"?>
<!-- Uploaded to: SVG Repo, www.svgrepo.com, Generator: SVG Repo Mixer Tools -->
<svg height="800px" width="800px" version="1.1" id="Layer_1" xmlns="http://www.w3.org/2000/svg" xmlns:xlink="http://www.w3.org/1999/xlink" 
	 viewBox="0 0 512 512" xml:space="preserve">
<g>
	<path style="fill:#C8C6CD;" d="M223.119,512c-2.521,0-5.036-0.997-6.905-2.972c-7.947-8.402-26.33-31.685-25.403-66.334
		c0.384-14.343,7.393-24.21,13.578-32.918c5.471-7.701,10.638-14.975,11.819-25.534c1.278-11.427-1.485-23.552-8.213-36.037
		c-2.49-4.62-0.764-10.383,3.857-12.873c4.618-2.49,10.383-0.764,12.873,3.857c8.598,15.953,12.087,31.823,10.371,47.167
		c-1.728,15.444-8.892,25.529-15.212,34.427c-5.5,7.744-9.845,13.86-10.074,22.42c-0.759,28.332,15.278,47.55,20.212,52.767
		c3.606,3.813,3.439,9.827-0.374,13.434C227.81,511.138,225.462,512,223.119,512z"/>
	<path style="fill:#C8C6CD;" d="M322.784,507.777c-2.129,0-4.27-0.712-6.041-2.172c-4.048-3.339-4.623-9.328-1.285-13.377
		c13.989-16.962,20.378-32.807,18.99-47.094c-1.052-10.819-6.2-18.402-12.161-27.183c-6.462-9.518-13.785-20.304-16.473-36.364
		c-3.169-18.945,2.421-43.805,14.029-64.318c2.585-4.568,8.383-6.174,12.95-3.591c4.568,2.585,6.176,8.383,3.591,12.95
		c-9.408,16.627-14.257,37.284-11.825,51.823c2.002,11.958,7.563,20.151,13.452,28.825c6.801,10.017,13.833,20.375,15.354,36.02
		c1.893,19.496-5.927,40.027-23.245,61.025C328.242,506.597,325.525,507.777,322.784,507.777z"/>
</g>
<path style="fill:#67D1D3;" d="M232.014,323.371c3.648,12.058-5.292,17.779-17.351,21.427c-12.058,3.648-22.67,3.84-26.318-8.218
	s3.171-24.791,15.23-28.437C215.635,304.494,228.367,311.312,232.014,323.371z"/>
<path style="fill:#F7CF6D;" d="M348.772,315.249c0,12.598-10.212,11.591-22.81,11.591c-12.598,0-22.81,1.007-22.81-11.591
	c0-12.598,10.212-22.81,22.81-22.81C338.56,292.437,348.772,302.651,348.772,315.249z"/>
<ellipse style="fill:#88E2E2;" cx="163.836" cy="183.821" rx="123.574" ry="131.239"/>
<path style="fill:#67D1D3;" d="M236.165,77.421c17.45,22.629,27.924,51.562,27.924,83.093c0,72.481-55.322,131.237-123.567,131.237
	c-27.013,0-51.998-9.213-72.332-24.833c22.661,29.386,57.087,48.143,95.643,48.143c68.245,0,123.567-58.757,123.567-131.237
	C287.401,140.036,267.202,101.261,236.165,77.421z"/>
<ellipse style="fill:#F9DE8F;" cx="333.948" cy="146.33" rx="137.79" ry="146.33"/>
<path style="fill:#F7CF6D;" d="M414.978,27.985c19.621,25.285,31.407,57.685,31.407,93.009c0,80.819-61.688,146.335-137.782,146.335
	c-30.291,0-58.292-10.39-81.036-27.985c25.271,32.564,63.54,53.326,106.376,53.326c76.095,0,137.783-65.517,137.783-146.335
	C471.726,97.687,449.369,54.593,414.978,27.985z"/>
</svg>